<svg xmlns="http://www.w3.org/2000/svg" width="17" height="16" viewBox="0 0 17 16" fill="none">
  <path d="M11.6379 5.03456C11.641 5.03456 11.6451 5.03456 11.6491 5.03456C11.7557 5.03456 11.8546 5.06769 11.9356 5.12478L11.9341 5.12376C11.9932 5.17524 12.033 5.24762 12.0426 5.32918V5.3307C12.0528 5.39289 12.0584 5.46425 12.0584 5.53714C12.0584 5.57027 12.0574 5.60289 12.0549 5.63552V5.63093C11.9402 6.83845 11.4427 9.76678 11.1899 11.1185C11.0828 11.691 10.8723 11.8826 10.6684 11.901C10.2255 11.9423 9.88908 11.6084 9.4599 11.327C8.78809 10.8861 8.40835 10.6119 7.75642 10.1822C7.00255 9.68624 7.49137 9.41252 7.92055 8.96703C8.0332 8.8498 9.98593 7.07343 10.0242 6.91236C10.0262 6.90267 10.0272 6.89197 10.0272 6.88076C10.0272 6.841 10.0124 6.80481 9.98848 6.77728C9.96197 6.75995 9.92884 6.75027 9.89418 6.75027C9.87124 6.75027 9.84932 6.75486 9.82893 6.7625L9.82995 6.76199C9.76267 6.77728 8.68955 7.48647 6.61058 8.88955C6.38375 9.06846 6.09729 9.18162 5.78534 9.19487H5.78229C5.34036 9.14135 4.93921 9.04298 4.55845 8.90281L4.59617 8.91504C4.11806 8.75907 3.73832 8.677 3.77094 8.41297C3.78827 8.27568 3.97755 8.13517 4.33877 7.99143C6.56385 7.02195 8.04764 6.38293 8.79013 6.07438C9.60925 5.63959 10.5589 5.28177 11.5574 5.04985L11.6374 5.03405L11.6379 5.03456ZM8.48175 0.439453C4.25007 0.449647 0.823242 3.8826 0.823242 8.1158C0.823242 12.3551 4.25976 15.7922 8.49959 15.7922C12.7394 15.7922 16.1759 12.3556 16.1759 8.1158C16.1759 3.8826 12.7491 0.449647 8.51845 0.439453H8.51743C8.50554 0.439453 8.49364 0.439453 8.48175 0.439453Z" fill="white"/>
</svg>