<svg xmlns="http://www.w3.org/2000/svg" width="17" height="13" viewBox="0 0 17 13" fill="none">
  <path d="M13.7122 1.16915C12.7184 0.704173 11.6558 0.366247 10.5448 0.173828C10.4084 0.420502 10.249 0.752283 10.1391 1.01621C8.95815 0.838611 7.78804 0.838611 6.6288 1.01621C6.51892 0.752283 6.3559 0.420502 6.21824 0.173828C5.10609 0.366247 4.04225 0.705415 3.04844 1.17161C1.04392 4.2007 0.50053 7.15456 0.772227 10.0665C2.10173 11.0593 3.39018 11.6624 4.65688 12.0571C4.96964 11.6266 5.24857 11.1691 5.48887 10.6868C5.03122 10.5129 4.59288 10.2983 4.17871 10.0492C4.28859 9.9678 4.39606 9.8827 4.4999 9.79513C7.02607 10.9767 9.77081 10.9767 12.2668 9.79513C12.3719 9.8827 12.4793 9.9678 12.588 10.0492C12.1726 10.2996 11.7331 10.5142 11.2754 10.6881C11.5157 11.1691 11.7934 11.6279 12.1074 12.0583C13.3753 11.6636 14.665 11.0605 15.9945 10.0665C16.3133 6.69082 15.4499 3.76409 13.7122 1.16915ZM5.83303 8.27567C5.0747 8.27567 4.4528 7.56772 4.4528 6.70562C4.4528 5.84351 5.06142 5.13434 5.83303 5.13434C6.60466 5.13434 7.22653 5.84227 7.21325 6.70562C7.21445 7.56772 6.60466 8.27567 5.83303 8.27567ZM10.9337 8.27567C10.1754 8.27567 9.55346 7.56772 9.55346 6.70562C9.55346 5.84351 10.1621 5.13434 10.9337 5.13434C11.7053 5.13434 12.3272 5.84227 12.3139 6.70562C12.3139 7.56772 11.7053 8.27567 10.9337 8.27567Z" fill="white"/>
</svg>