<svg xmlns="http://www.w3.org/2000/svg" width="22" height="18" viewBox="0 0 22 18" fill="none">
  <path fill-rule="evenodd" clip-rule="evenodd" d="M22 6.25C22 6.06766 21.9276 5.89279 21.7986 5.76386C21.6697 5.63493 21.4948 5.5625 21.3125 5.5625H5.764C5.58167 5.5625 5.4068 5.63493 5.27786 5.76386C5.14893 5.89279 5.0765 6.06766 5.0765 6.25C5.0765 6.43234 5.14893 6.60721 5.27786 6.73614C5.4068 6.86507 5.58167 6.9375 5.764 6.9375H21.3125C21.4948 6.9375 21.6697 6.86507 21.7986 6.73614C21.9276 6.60721 22 6.43234 22 6.25ZM22 0.75C22 0.567664 21.9276 0.392795 21.7986 0.263864C21.6697 0.134933 21.4948 0.0625 21.3125 0.0625H0.6875C0.505163 0.0625 0.330296 0.134933 0.201363 0.263864C0.0724316 0.392795 0 0.567664 0 0.75C0 0.932336 0.0724316 1.1072 0.201363 1.23614C0.330296 1.36507 0.505163 1.4375 0.6875 1.4375H21.3125C21.4948 1.4375 21.6697 1.36507 21.7986 1.23614C21.9276 1.1072 22 0.932336 22 0.75ZM22 11.75C22 11.5677 21.9276 11.3928 21.7986 11.2639C21.6697 11.1349 21.4948 11.0625 21.3125 11.0625H0.6875C0.505163 11.0625 0.330296 11.1349 0.201363 11.2639C0.0724316 11.3928 0 11.5677 0 11.75C0 11.9323 0.0724316 12.1072 0.201363 12.2361C0.330296 12.3651 0.505163 12.4375 0.6875 12.4375H21.3125C21.4948 12.4375 21.6697 12.3651 21.7986 12.2361C21.9276 12.1072 22 11.9323 22 11.75ZM22 17.25C22 17.0677 21.9276 16.8928 21.7986 16.7639C21.6697 16.6349 21.4948 16.5625 21.3125 16.5625H5.764C5.58167 16.5625 5.4068 16.6349 5.27786 16.7639C5.14893 16.8928 5.0765 17.0677 5.0765 17.25C5.0765 17.4323 5.14893 17.6072 5.27786 17.7361C5.4068 17.8651 5.58167 17.9375 5.764 17.9375H21.3125C21.4948 17.9375 21.6697 17.8651 21.7986 17.7361C21.9276 17.6072 22 17.4323 22 17.25Z" fill="#F8F8F8"/>
</svg>