<svg width="1982" height="385" viewBox="0 0 1982 385" fill="none" xmlns="http://www.w3.org/2000/svg">
<mask id="path-1-inside-1_157_2142" fill="white">
<path d="M26.4162 224.174V140.742H317.33V224.174H26.4162ZM258.598 0.774144H351.361V385H258.598V0.774144ZM0.61816 0.774144H93.3813V385H0.61816V0.774144ZM651.679 0.774144H746.089V385H651.679V0.774144ZM1047.05 0.774144H1142.56V385H1047.05V0.774144ZM1184.28 385H1108.53V302.666H1180.98C1195.62 302.666 1209.71 300.836 1223.25 297.177C1237.15 293.518 1249.23 287.48 1259.48 279.063C1270.09 270.647 1278.51 259.486 1284.73 245.581C1290.95 231.31 1294.06 213.745 1294.06 192.887C1294.06 172.029 1290.95 154.647 1284.73 140.742C1278.51 126.471 1270.09 115.127 1259.48 106.711C1249.23 98.2943 1237.15 92.2565 1223.25 88.5972C1209.71 84.9379 1195.62 83.1083 1180.98 83.1083H1108.53V0.774144H1184.28C1226.36 0.774144 1262.77 8.64163 1293.51 24.3766C1324.25 40.1116 1348.03 62.2503 1364.86 90.7928C1381.7 119.335 1390.11 153.367 1390.11 192.887C1390.11 232.042 1381.7 266.073 1364.86 294.981C1348.03 323.524 1324.25 345.663 1293.51 361.398C1262.77 377.133 1226.36 385 1184.28 385ZM1765.23 211.001H1861.28L1981.49 385H1872.81L1765.23 211.001ZM1669.17 0.774144H1761.93V385H1669.17V0.774144ZM1727.35 79.266V0.774144H1809.14C1842.07 0.774144 1869.52 6.08013 1891.47 16.6921C1913.43 27.304 1930.08 42.1242 1941.42 61.1525C1952.77 79.8149 1958.44 101.588 1958.44 126.471C1958.44 150.988 1952.77 172.761 1941.42 191.789C1930.08 210.452 1913.43 225.089 1891.47 235.701C1869.52 246.313 1842.07 251.619 1809.14 251.619H1727.35V179.714H1802.55C1814.99 179.714 1825.61 177.884 1834.39 174.225C1843.54 170.199 1850.49 164.528 1855.25 157.209C1860 149.524 1862.38 140.376 1862.38 129.764C1862.38 119.152 1860 110.187 1855.25 102.868C1850.49 95.1839 1843.54 89.3291 1834.39 85.3039C1825.61 81.2786 1814.99 79.266 1802.55 79.266H1727.35Z"/>
</mask>
<path d="M26.4162 224.174H25.9162V224.674H26.4162V224.174ZM26.4162 140.742V140.242H25.9162V140.742H26.4162ZM317.33 140.742H317.83V140.242H317.33V140.742ZM317.33 224.174V224.674H317.83V224.174H317.33ZM258.598 0.774144V0.274144H258.098V0.774144H258.598ZM351.361 0.774144H351.861V0.274144H351.361V0.774144ZM351.361 385V385.5H351.861V385H351.361ZM258.598 385H258.098V385.5H258.598V385ZM0.61816 0.774144V0.274144H0.11816V0.774144H0.61816ZM93.3813 0.774144H93.8813V0.274144H93.3813V0.774144ZM93.3813 385V385.5H93.8813V385H93.3813ZM0.61816 385H0.11816V385.5H0.61816V385ZM26.9162 224.174V140.742H25.9162V224.174H26.9162ZM26.4162 141.242H317.33V140.242H26.4162V141.242ZM316.83 140.742V224.174H317.83V140.742H316.83ZM317.33 223.674H26.4162V224.674H317.33V223.674ZM258.598 1.27414H351.361V0.274144H258.598V1.27414ZM350.861 0.774144V385H351.861V0.774144H350.861ZM351.361 384.5H258.598V385.5H351.361V384.5ZM259.098 385V0.774144H258.098V385H259.098ZM0.61816 1.27414H93.3813V0.274144H0.61816V1.27414ZM92.8813 0.774144V385H93.8813V0.774144H92.8813ZM93.3813 384.5H0.61816V385.5H93.3813V384.5ZM1.11816 385V0.774144H0.11816V385H1.11816ZM651.679 0.774144V0.274144H651.179V0.774144H651.679ZM746.089 0.774144H746.589V0.274144H746.089V0.774144ZM746.089 385V385.5H746.589V385H746.089ZM651.679 385H651.179V385.5H651.679V385ZM651.679 1.27414H746.089V0.274144H651.679V1.27414ZM745.589 0.774144V385H746.589V0.774144H745.589ZM746.089 384.5H651.679V385.5H746.089V384.5ZM652.179 385V0.774144H651.179V385H652.179ZM1047.05 0.774144V0.274144H1046.55V0.774144H1047.05ZM1142.56 0.774144H1143.06V0.274144H1142.56V0.774144ZM1142.56 385V385.5H1143.06V385H1142.56ZM1047.05 385H1046.55V385.5H1047.05V385ZM1108.53 385H1108.03V385.5H1108.53V385ZM1108.53 302.666V302.166H1108.03V302.666H1108.53ZM1223.25 297.177L1223.12 296.693L1223.12 296.694L1223.25 297.177ZM1259.48 279.063L1259.17 278.672L1259.16 278.677L1259.48 279.063ZM1284.73 245.581L1285.18 245.785L1285.18 245.781L1284.73 245.581ZM1284.73 140.742L1284.27 140.942L1284.27 140.946L1284.73 140.742ZM1259.48 106.711L1259.16 107.097L1259.17 107.102L1259.48 106.711ZM1223.25 88.5972L1223.12 89.0799L1223.12 89.0807L1223.25 88.5972ZM1108.53 83.1083H1108.03V83.6083H1108.53V83.1083ZM1108.53 0.774144V0.274144H1108.03V0.774144H1108.53ZM1293.51 24.3766L1293.28 24.8217L1293.28 24.8217L1293.51 24.3766ZM1364.86 90.7928L1364.43 91.0468L1364.43 91.0468L1364.86 90.7928ZM1364.86 294.981L1365.3 295.235L1365.3 295.233L1364.86 294.981ZM1293.51 361.398L1293.28 360.952L1293.28 360.952L1293.51 361.398ZM1047.05 1.27414H1142.56V0.274144H1047.05V1.27414ZM1142.06 0.774144V385H1143.06V0.774144H1142.06ZM1142.56 384.5H1047.05V385.5H1142.56V384.5ZM1047.55 385V0.774144H1046.55V385H1047.55ZM1184.28 384.5H1108.53V385.5H1184.28V384.5ZM1109.03 385V302.666H1108.03V385H1109.03ZM1108.53 303.166H1180.98V302.166H1108.53V303.166ZM1180.98 303.166C1195.66 303.166 1209.8 301.331 1223.38 297.66L1223.12 296.694C1209.62 300.342 1195.58 302.166 1180.98 302.166V303.166ZM1223.38 297.66C1237.35 293.984 1249.49 287.916 1259.79 279.45L1259.16 278.677C1248.97 287.044 1236.96 293.051 1223.12 296.693L1223.38 297.66ZM1259.79 279.455C1270.47 270.983 1278.93 259.754 1285.18 245.785L1284.27 245.377C1278.08 259.218 1269.71 270.311 1259.17 278.672L1259.79 279.455ZM1285.18 245.781C1291.44 231.429 1294.56 213.792 1294.56 192.887H1293.56C1293.56 213.698 1290.45 231.19 1284.27 245.381L1285.18 245.781ZM1294.56 192.887C1294.56 171.983 1291.44 154.527 1285.18 140.538L1284.27 140.946C1290.45 154.768 1293.56 172.075 1293.56 192.887H1294.56ZM1285.18 140.542C1278.94 126.207 1270.47 114.793 1259.79 106.319L1259.17 107.102C1269.7 115.461 1278.07 126.734 1284.27 140.942L1285.18 140.542ZM1259.79 106.324C1249.49 97.8585 1237.35 91.7897 1223.38 88.1137L1223.12 89.0807C1236.96 92.7233 1248.97 98.7301 1259.16 107.097L1259.79 106.324ZM1223.38 88.1145C1209.8 84.4432 1195.66 82.6083 1180.98 82.6083V83.6083C1195.58 83.6083 1209.62 85.4326 1223.12 89.0799L1223.38 88.1145ZM1180.98 82.6083H1108.53V83.6083H1180.98V82.6083ZM1109.03 83.1083V0.774144H1108.03V83.1083H1109.03ZM1108.53 1.27414H1184.28V0.274144H1108.53V1.27414ZM1184.28 1.27414C1226.3 1.27414 1262.63 9.12986 1293.28 24.8217L1293.74 23.9315C1262.91 8.1534 1226.42 0.274144 1184.28 0.274144V1.27414ZM1293.28 24.8217C1323.94 40.5154 1347.65 62.5895 1364.43 91.0468L1365.3 90.5388C1348.41 61.9111 1324.55 39.7078 1293.74 23.9315L1293.28 24.8217ZM1364.43 91.0468C1381.21 119.499 1389.61 153.439 1389.61 192.887H1390.61C1390.61 153.295 1382.18 119.172 1365.3 90.5388L1364.43 91.0468ZM1389.61 192.887C1389.61 231.968 1381.21 265.91 1364.43 294.73L1365.3 295.233C1382.18 266.236 1390.61 232.115 1390.61 192.887H1389.61ZM1364.43 294.727C1347.65 323.185 1323.94 345.259 1293.28 360.952L1293.74 361.843C1324.55 346.066 1348.41 323.863 1365.3 295.235L1364.43 294.727ZM1293.28 360.952C1262.63 376.644 1226.3 384.5 1184.28 384.5V385.5C1226.42 385.5 1262.91 377.621 1293.74 361.843L1293.28 360.952ZM1765.23 211.001V210.501H1764.33L1764.8 211.264L1765.23 211.001ZM1861.28 211.001L1861.69 210.716L1861.55 210.501H1861.28V211.001ZM1981.49 385V385.5H1982.44L1981.9 384.716L1981.49 385ZM1872.81 385L1872.38 385.263L1872.53 385.5H1872.81V385ZM1669.17 0.774144V0.274144H1668.67V0.774144H1669.17ZM1761.93 0.774144H1762.43V0.274144H1761.93V0.774144ZM1761.93 385V385.5H1762.43V385H1761.93ZM1669.17 385H1668.67V385.5H1669.17V385ZM1727.35 79.266H1726.85V79.766H1727.35V79.266ZM1727.35 0.774144V0.274144H1726.85V0.774144H1727.35ZM1891.47 16.6921L1891.25 17.1423L1891.25 17.1423L1891.47 16.6921ZM1941.42 61.1525L1940.99 61.4085L1940.99 61.4122L1941.42 61.1525ZM1941.42 191.789L1941.85 192.049L1941.85 192.045L1941.42 191.789ZM1891.47 235.701L1891.69 236.151L1891.69 236.151L1891.47 235.701ZM1727.35 251.619H1726.85V252.119H1727.35V251.619ZM1727.35 179.714V179.214H1726.85V179.714H1727.35ZM1834.39 174.225L1834.58 174.686L1834.59 174.682L1834.39 174.225ZM1855.25 157.209L1855.66 157.482L1855.67 157.472L1855.25 157.209ZM1855.25 102.868L1854.82 103.132L1854.83 103.141L1855.25 102.868ZM1834.39 85.3039L1834.18 85.7584L1834.19 85.7615L1834.39 85.3039ZM1765.23 211.501H1861.28V210.501H1765.23V211.501ZM1860.87 211.285L1981.08 385.284L1981.9 384.716L1861.69 210.716L1860.87 211.285ZM1981.49 384.5H1872.81V385.5H1981.49V384.5ZM1873.24 384.737L1765.65 210.738L1764.8 211.264L1872.38 385.263L1873.24 384.737ZM1669.17 1.27414H1761.93V0.274144H1669.17V1.27414ZM1761.43 0.774144V385H1762.43V0.774144H1761.43ZM1761.93 384.5H1669.17V385.5H1761.93V384.5ZM1669.67 385V0.774144H1668.67V385H1669.67ZM1727.85 79.266V0.774144H1726.85V79.266H1727.85ZM1727.35 1.27414H1809.14V0.274144H1727.35V1.27414ZM1809.14 1.27414C1842.02 1.27414 1869.39 6.57249 1891.25 17.1423L1891.69 16.2419C1869.65 5.58776 1842.12 0.274144 1809.14 0.274144V1.27414ZM1891.25 17.1423C1913.13 27.7161 1929.7 42.4727 1940.99 61.4085L1941.85 60.8965C1930.45 41.7757 1913.72 26.892 1891.69 16.2419L1891.25 17.1423ZM1940.99 61.4122C1952.28 79.9859 1957.94 101.666 1957.94 126.471H1958.94C1958.94 101.509 1953.25 79.6439 1941.85 60.8928L1940.99 61.4122ZM1957.94 126.471C1957.94 150.908 1952.29 172.59 1940.99 191.533L1941.85 192.045C1953.25 172.931 1958.94 151.068 1958.94 126.471H1957.94ZM1940.99 191.53C1929.71 210.1 1913.13 224.676 1891.25 235.251L1891.69 236.151C1913.72 225.502 1930.45 210.803 1941.85 192.049L1940.99 191.53ZM1891.25 235.251C1869.39 245.82 1842.02 251.119 1809.14 251.119V252.119C1842.12 252.119 1869.65 246.805 1891.69 236.151L1891.25 235.251ZM1809.14 251.119H1727.35V252.119H1809.14V251.119ZM1727.85 251.619V179.714H1726.85V251.619H1727.85ZM1727.35 180.214H1802.55V179.214H1727.35V180.214ZM1802.55 180.214C1815.04 180.214 1825.72 178.377 1834.58 174.686L1834.2 173.763C1825.49 177.391 1814.95 179.214 1802.55 179.214V180.214ZM1834.59 174.682C1843.81 170.624 1850.85 164.893 1855.66 157.481L1854.83 156.936C1850.13 164.162 1843.26 169.775 1834.19 173.767L1834.59 174.682ZM1855.67 157.472C1860.48 149.696 1862.88 140.453 1862.88 129.764H1861.88C1861.88 140.3 1859.52 149.353 1854.82 156.946L1855.67 157.472ZM1862.88 129.764C1862.88 119.077 1860.48 110.012 1855.66 102.596L1854.83 103.141C1859.52 110.362 1861.88 119.228 1861.88 129.764H1862.88ZM1855.67 102.605C1850.85 94.8258 1843.82 88.9076 1834.59 84.8462L1834.19 85.7615C1843.25 89.7505 1850.12 95.5421 1854.82 103.132L1855.67 102.605ZM1834.6 84.8493C1825.73 80.7868 1815.05 78.766 1802.55 78.766V79.766C1814.94 79.766 1825.48 81.7704 1834.18 85.7584L1834.6 84.8493ZM1802.55 78.766H1727.35V79.766H1802.55V78.766Z" fill="white" mask="url(#path-1-inside-1_157_2142)"/>
</svg>
